# xmcd
#
# Track frame offsets:
#	150
#	11622
#	23983
#	36018
#	46885
#	58365
#	73669
#	87210
#	98076
#	110715
#
# Disc length: 1648 seconds
#
# Revision: 0
# Processed by: cddbd v1.4PL0 Copyright (c) Steve Scherf et al.
# Submitted via: EasyCDDAExtractor 4.6.9.1
#
DISCID=82066e0a
DTITLE=Merle Haggard and The Strangers - Portrait Of Merle Haggard
DYEAR=1969
DGENRE=Country
TTITLE0=Workin' Man Blues
TTITLE1=What's Wrong With Stayin' Home
TTITLE2=Silver Wings
TTITLE3=Who Do I Know in Dallas
TTITLE4=She Thinks I Still Care
TTITLE5=Hungry Eyes
TTITLE6=I Die Ten Thousand Times a Day
TTITLE7=Every Fool Has a Rainbow
TTITLE8=I Came So Close to Losing My Home
TTITLE9=Montego Bay
EXTD=
EXTT0=
EXTT1=
EXTT2=
EXTT3=
EXTT4=
EXTT5=
EXTT6=
EXTT7=
EXTT8=
EXTT9=
PLAYORDER=
